<svg width="32" height="32" viewBox="0 0 32 32" fill="none" xmlns="http://www.w3.org/2000/svg">
<path d="M13.3333 4.66659H10.6667V2.66659C10.6667 1.93125 10.0687 1.33325 9.33333 1.33325H6.66666C5.93133 1.33325 5.33333 1.93125 5.33333 2.66659V5.99992H2.66666C1.93133 5.99992 1.33333 6.59792 1.33333 7.33325V13.3333C1.33333 13.5101 1.40357 13.6796 1.52859 13.8047C1.65361 13.9297 1.82318 13.9999 1.99999 13.9999H14C14.1768 13.9999 14.3464 13.9297 14.4714 13.8047C14.5964 13.6796 14.6667 13.5101 14.6667 13.3333V5.99992C14.6667 5.26459 14.0687 4.66659 13.3333 4.66659ZM2.66666 7.33325H5.33333V12.6666H2.66666V7.33325ZM6.66666 6.66659V2.66659H9.33333V12.6666H6.66666V6.66659ZM13.3333 12.6666H10.6667V5.99992H13.3333V12.6666Z" fill="#FFDF00"/>
<path d="M28.6667 17.3333H19.3333C18.598 17.3333 18 17.9313 18 18.6666V29.3333C18 30.0686 18.598 30.6666 19.3333 30.6666H28.6667C29.402 30.6666 30 30.0686 30 29.3333V18.6666C30 17.9313 29.402 17.3333 28.6667 17.3333ZM19.3333 29.3333V18.6666H28.6667L28.6673 29.3333H19.3333Z" fill="#FFDF00"/>
<path d="M20.6667 24H22V25.3333H20.6667V24ZM20.6667 26.6667H22V28H20.6667V26.6667ZM23.3333 24H24.6667V25.3333H23.3333V24ZM20.6667 20H27.3333V22.6667H20.6667V20ZM23.3333 26.6667H24.6667V28H23.3333V26.6667ZM26 24H27.3333V28H26V24Z" fill="#FFDF00"/>
</svg>
