<svg width="32" height="32" viewBox="0 0 32 32" fill="none" xmlns="http://www.w3.org/2000/svg">
<path d="M28.6667 17.9999H27.1667C27.1667 17.8231 27.0964 17.6535 26.9714 17.5285C26.8464 17.4035 26.6768 17.3333 26.5 17.3333H21.5C21.3232 17.3333 21.1536 17.4035 21.0286 17.5285C20.9036 17.6535 20.8333 17.8231 20.8333 17.9999H19.3333C18.598 17.9999 18 18.5979 18 19.3333V29.3333C18 30.0686 18.598 30.6666 19.3333 30.6666H28.6667C29.402 30.6666 30 30.0686 30 29.3333V19.3333C30 18.5979 29.402 17.9999 28.6667 17.9999ZM28.6667 29.3333H19.3333V19.3333H20.6667V20.6666H27.3333V19.3333H28.6667V29.3333Z" fill="#FFDF00"/>
<path d="M13.3333 3.99992H11.3333V2.66659C11.3333 1.93125 10.7353 1.33325 10 1.33325H6C5.26466 1.33325 4.66666 1.93125 4.66666 2.66659V3.99992H2.66666C1.93133 3.99992 1.33333 4.59792 1.33333 5.33325V12.6666C1.33333 13.4019 1.93133 13.9999 2.66666 13.9999H13.3333C14.0687 13.9999 14.6667 13.4019 14.6667 12.6666V5.33325C14.6667 4.59792 14.0687 3.99992 13.3333 3.99992ZM10 2.66659V3.99992H6V2.66659H10ZM2.66666 5.33325H13.3333V7.99992H11.3333V6.66659H10V7.99992H6V6.66659H4.66666V7.99992H2.66666V5.33325ZM2.66666 12.6666V9.33325H4.66666V10.6666H6V9.33325H10V10.6666H11.3333V9.33325H13.334V12.6666H2.66666Z" fill="#FFDF00"/>
</svg>
