<svg width="32" height="32" viewBox="0 0 32 32" fill="none" xmlns="http://www.w3.org/2000/svg">
<path d="M12 1.33325H4.66666C3.93133 1.33325 3.33333 1.93125 3.33333 2.66659V4.66658C3.33333 5.40192 3.93133 5.99992 4.66666 5.99992H12C12.7353 5.99992 13.3333 5.40192 13.3333 4.66658V2.66659C13.3333 1.93125 12.7353 1.33325 12 1.33325ZM4.66666 4.66658V2.66659H12L12.0013 4.66658H4.66666Z" fill="#FFDF00"/>
<path d="M8.66666 9.99992V8.66658C8.66666 7.93125 8.06866 7.33325 7.33333 7.33325H2.66666V3.33325C1.93133 3.33325 1.33333 3.93125 1.33333 4.66659V7.33325C1.33333 8.06858 1.93133 8.66658 2.66666 8.66658H7.33333V9.99992C7.15652 9.99992 6.98695 10.0702 6.86192 10.1952C6.7369 10.3202 6.66666 10.4898 6.66666 10.6666V13.9999C6.66666 14.1767 6.7369 14.3463 6.86192 14.4713C6.98695 14.5963 7.15652 14.6666 7.33333 14.6666H8.66666C8.84347 14.6666 9.01304 14.5963 9.13807 14.4713C9.26309 14.3463 9.33333 14.1767 9.33333 13.9999V10.6666C9.33333 10.4898 9.26309 10.3202 9.13807 10.1952C9.01304 10.0702 8.84347 9.99992 8.66666 9.99992Z" fill="#FFDF00"/>
<path d="M28.1847 21.3333C28.416 21.7307 28.8413 22 29.3333 22C29.6869 22 30.0261 21.8595 30.2761 21.6095C30.5262 21.3594 30.6667 21.0203 30.6667 20.6667C30.6667 20.313 30.5262 19.9739 30.2761 19.7239C30.0261 19.4738 29.6869 19.3333 29.3333 19.3333C28.8413 19.3333 28.416 19.6027 28.1847 20H26.6667V18.6667C26.6667 18.4899 26.5964 18.3203 26.4714 18.1953C26.3464 18.0702 26.1768 18 26 18H22C21.8232 18 21.6536 18.0702 21.5286 18.1953C21.4036 18.3203 21.3333 18.4899 21.3333 18.6667V20H19.8153C19.584 19.6027 19.1587 19.3333 18.6667 19.3333C18.313 19.3333 17.9739 19.4738 17.7239 19.7239C17.4738 19.9739 17.3333 20.313 17.3333 20.6667C17.3333 21.0203 17.4738 21.3594 17.7239 21.6095C17.9739 21.8595 18.313 22 18.6667 22C19.1587 22 19.584 21.7307 19.8153 21.3333H21.3333V21.5793C19.422 22.56 18.8787 24.356 18.7273 25.3333H18C17.8232 25.3333 17.6536 25.4036 17.5286 25.5286C17.4036 25.6536 17.3333 25.8232 17.3333 26V28.6667C17.3333 28.8435 17.4036 29.013 17.5286 29.1381C17.6536 29.2631 17.8232 29.3333 18 29.3333H20.6667C20.8435 29.3333 21.013 29.2631 21.1381 29.1381C21.2631 29.013 21.3333 28.8435 21.3333 28.6667V26C21.3333 25.8232 21.2631 25.6536 21.1381 25.5286C21.013 25.4036 20.8435 25.3333 20.6667 25.3333H20.082C20.2133 24.694 20.5607 23.7293 21.472 23.0547C21.5317 23.1396 21.6107 23.2091 21.7025 23.2575C21.7942 23.306 21.8962 23.332 22 23.3333H26C26.1039 23.3321 26.206 23.3061 26.2978 23.2575C26.3896 23.209 26.4685 23.1392 26.528 23.054C27.4433 23.7293 27.7913 24.6927 27.9207 25.3333H27.3333C27.1565 25.3333 26.9869 25.4036 26.8619 25.5286C26.7369 25.6536 26.6667 25.8232 26.6667 26V28.6667C26.6667 28.8435 26.7369 29.013 26.8619 29.1381C26.9869 29.2631 27.1565 29.3333 27.3333 29.3333H30C30.1768 29.3333 30.3464 29.2631 30.4714 29.1381C30.5964 29.013 30.6667 28.8435 30.6667 28.6667V26C30.6667 25.8232 30.5964 25.6536 30.4714 25.5286C30.3464 25.4036 30.1768 25.3333 30 25.3333H29.272C29.1207 24.356 28.5773 22.5593 26.6667 21.5787V21.3333H28.1847ZM20 28H18.6667V26.6667H20V28ZM29.3333 28H28V26.6667H29.3333V28ZM25.3333 22H22.6667V19.3333H25.3333V22Z" fill="#FFDF00"/>
</svg>
