<svg width="32" height="32" viewBox="0 0 32 32" fill="none" xmlns="http://www.w3.org/2000/svg">
<path d="M7.63 14.5546C7.73955 14.6277 7.8683 14.6667 8 14.6667C8.1317 14.6667 8.26045 14.6277 8.37 14.5546L14.37 10.5546C14.4456 10.5044 14.5101 10.4393 14.5596 10.3633C14.6091 10.2872 14.6425 10.2019 14.6578 10.1125C14.6731 10.0231 14.6699 9.93149 14.6485 9.84334C14.6271 9.75519 14.5879 9.67235 14.5333 9.5999L8.53333 1.5999C8.282 1.2639 7.718 1.2639 7.46667 1.5999L1.46667 9.5999C1.41226 9.67242 1.37322 9.75527 1.35193 9.84338C1.33064 9.9315 1.32754 10.023 1.34283 10.1124C1.35812 10.2017 1.39147 10.287 1.44085 10.3631C1.49022 10.4391 1.55458 10.5043 1.63 10.5546L7.63 14.5546ZM8.66667 12.7539V3.9999L13.0433 9.8359L8.66667 12.7539ZM7.33333 3.9999V12.7539L2.95667 9.8359L7.33333 3.9999Z" fill="#FFDF00"/>
<path d="M28.6667 17.3333H22C21.2647 17.3333 20.6667 17.9313 20.6667 18.6666V22.3906L17.5287 25.5286C17.4355 25.6218 17.372 25.7406 17.3463 25.8699C17.3206 25.9992 17.3338 26.1332 17.3842 26.255C17.4347 26.3768 17.5201 26.4809 17.6297 26.5542C17.7393 26.6274 17.8682 26.6666 18 26.6666V29.9999C18 30.1767 18.0702 30.3463 18.1953 30.4713C18.3203 30.5963 18.4899 30.6666 18.6667 30.6666H29.3333C29.5101 30.6666 29.6797 30.5963 29.8047 30.4713C29.9298 30.3463 30 30.1767 30 29.9999V18.6666C30 17.9313 29.402 17.3333 28.6667 17.3333ZM23.3333 29.3333H19.3333V25.6093L21.3333 23.6093L23.3333 25.6093V29.3333ZM28.6667 29.3333H24.6667V26.6666C24.7986 26.6669 24.9277 26.628 25.0375 26.5547C25.1474 26.4815 25.233 26.3774 25.2835 26.2554C25.334 26.1335 25.3471 25.9993 25.3212 25.8699C25.2953 25.7405 25.2315 25.6217 25.138 25.5286L22 22.3906V18.6666H28.6667V29.3333Z" fill="#FFDF00"/>
<path d="M23.3333 20H24.6667V21.3333H23.3333V20ZM26 20H27.3333V21.3333H26V20ZM26 22.6873H27.3333V24H26V22.6873ZM26 25.3333H27.3333V26.6667H26V25.3333ZM20.6667 26H22V27.3333H20.6667V26Z" fill="#FFDF00"/>
</svg>
