<svg width="32" height="32" viewBox="0 0 32 32" fill="none" xmlns="http://www.w3.org/2000/svg">
<path d="M29.9167 20.6667H18.0833C17.302 20.6667 16.6667 21.2647 16.6667 22.0001V26.0001C16.6667 26.7354 17.302 27.3334 18.0833 27.3334H29.9167C30.698 27.3334 31.3333 26.7354 31.3333 26.0001V22.0001C31.3333 21.2647 30.698 20.6667 29.9167 20.6667ZM29.9167 26.0001H18.0833C18.0453 26.0001 18.0193 25.9894 18.008 25.9894C18.0033 25.9894 18.0007 25.9907 18 25.9947L17.992 22.0307C17.9967 22.0241 18.0267 22.0001 18.0833 22.0001H19.3333V24.0001H20.6667V22.0001H22V24.6667H23.3333V22.0001H24.6667V24.0001H26V22.0001H27.3333V24.6667H28.6667V22.0001H29.9167C29.9693 22.0007 29.998 22.0187 30 22.0054L30.008 25.9694C30.0033 25.9761 29.9733 26.0001 29.9167 26.0001Z" fill="#FFDF00"/>
<path d="M14.298 4.06999L10.298 2.06999C10.2054 2.02364 10.1032 1.99951 9.99966 1.99951C9.89609 1.99951 9.79395 2.02364 9.70133 2.06999L5.99999 3.92132L2.29799 2.06999C2.19633 2.01919 2.08337 1.99522 1.96983 2.00036C1.8563 2.0055 1.74596 2.03958 1.64931 2.09937C1.55265 2.15915 1.47288 2.24265 1.41758 2.34194C1.36228 2.44123 1.33328 2.55301 1.33333 2.66666V11.3333C1.33333 11.586 1.47599 11.8167 1.70199 11.93L5.70199 13.93C5.79461 13.9763 5.89676 14.0005 6.00033 14.0005C6.1039 14.0005 6.20604 13.9763 6.29866 13.93L9.99999 12.0787L13.702 13.9293C13.8034 13.9806 13.9163 14.0049 14.0297 13.9999C14.1432 13.9949 14.2535 13.9607 14.35 13.9007C14.5467 13.7787 14.6667 13.5647 14.6667 13.3333V4.66666C14.6667 4.41399 14.524 4.18332 14.298 4.06999ZM6.66666 5.07866L9.33333 3.74532V10.9213L6.66666 12.2547V5.07866ZM2.66666 3.74532L5.33333 5.07866V12.2547L2.66666 10.9213V3.74532ZM13.3333 12.2547L10.6667 10.9213V3.74532L13.3333 5.07866V12.2547Z" fill="#FFDF00"/>
</svg>
